<svg xmlns="http://www.w3.org/2000/svg" viewBox="0 0 1769.39 446.49"><defs><style>.cls-1{fill:#fff;}</style></defs><g id="Layer_2" data-name="Layer 2"><g id="Layer_1-2" data-name="Layer 1"><path class="cls-1" d="M296,440.11H251.31q-19.14,0-31.25-12.12t-12.12-31.25V223.24q0-30.6-18.5-44.64a67,67,0,0,0-41.46-14,64.29,64.29,0,0,0-40.82,14Q89.28,192.66,89.3,223.24V440.11H0v-199Q0,154.37,45.29,125t100.14-31.9a192.09,192.09,0,0,1,103.33,29.34q47.17,29.37,47.2,118.65Z"/><path class="cls-1" d="M383,1.28h45.93A41.85,41.85,0,0,1,459.51,14a41.87,41.87,0,0,1,12.75,30.62V71.44H383Zm0,99.5h45.93a43.55,43.55,0,0,1,43.37,43.37v296H383Z"/><path class="cls-1" d="M545.23,1.28h45.92A42.91,42.91,0,0,1,621.77,13.4a39.76,39.76,0,0,1,12.76,30V440.11h-89.3Z"/><path class="cls-1" d="M932,426.08a156.93,156.93,0,0,1-56.77,17.22,509,509,0,0,1-52.94,3.19q-45.91,0-80.37-24.87T707.5,339.33q0-53.56,31.26-76.54t79.73-30.61a74.81,74.81,0,0,0,15.31-1.92c5.93-1.28,12.75-2.33,20.4-3.19q56.13-7.65,56.14-33.17,0-19.12-19.78-24.87t-36.36-5.74q-17.87,0-31.89,5.1a34.77,34.77,0,0,0-20.41,19.14H716.43q5.09-39.53,35.72-65.07,34.44-29.33,98.23-29.34,71.42,0,107.16,24.24,37,25.53,37,71.44V304.89q0,51-18.5,79.73T932,426.08ZM911.61,269.17q-17.88,8.94-49.75,16.58l-29.34,6.38q-23,6.4-33.17,16.59-8.94,14-8.93,28.06,0,19.14,11.48,30.62,11.49,10.22,33.17,10.2,35.7,0,56.13-20.4t20.41-56.14Z"/><path class="cls-1" d="M1297.12,0h43.38q17.85,0,30.61,13.4t12.76,30V292.13q0,90.6-52.3,122.47A214.07,214.07,0,0,1,1218,446.49,201.24,201.24,0,0,1,1153,435.65q-31.9-10.83-51-35.08-37-47.19-37-128.85,0-80.37,37-128.84,38.27-49.75,98.22-49.76,31.88,0,56.13,12.76a121.26,121.26,0,0,1,40.82,39.55ZM1151.7,267.89q0,51,19.13,77.82t54.86,26.79q34.44,0,53.58-26.79,17.84-26.79,17.85-77.82,0-45.91-19.13-72.71-20.41-25.5-54.86-25.51-33.18,0-52.3,26.79Q1151.69,222,1151.7,267.89Z"/><path class="cls-1" d="M1506.6,409.49q-26.8-23-38.28-61.86a284.88,284.88,0,0,1-11.48-81,256.33,256.33,0,0,1,9.57-68.89q9.57-34.44,30-57.4,33.16-38.28,85.47-45.29t94.4,8.29q48.46,19.14,71.44,66.34,21.67,42.09,21.69,98.22,0,40.85-8.93,70.17t-23,49.75q-30.62,42.1-77.81,52.3a173.42,173.42,0,0,1-84.84,1.91Q1532.09,432.47,1506.6,409.49ZM1567.83,185q-26.79,29.37-24.24,87.39t21.68,81q7.67,10.22,26.8,17.22a60.86,60.86,0,0,0,38.9,1.27q19.77-5.73,35.08-28.7t16.59-74q0-45.93-14.67-68.89t-33.81-29.34a62.11,62.11,0,0,0-38.27-.64Q1576.77,176,1567.83,185Z"/></g></g></svg>